<?xml version="1.0" standalone="no"?>
<!DOCTYPE svg PUBLIC "-//W3C//DTD SVG 20010904//EN"
 "http://www.w3.org/TR/2001/REC-SVG-20010904/DTD/svg10.dtd">
<svg version="1.0" xmlns="http://www.w3.org/2000/svg"
 width="1280.000000pt" height="853.000000pt" viewBox="0 0 1280.000000 853.000000"
 preserveAspectRatio="xMidYMid meet">

<g transform="translate(0.000000,853.000000) scale(0.100000,-0.100000)"
fill="#000000" stroke="none">
<path d="M5088 6375 c-163 -60 -360 -197 -539 -375 -187 -187 -357 -418 -479
-652 l-45 -86 -52 -4 c-147 -12 -351 -181 -480 -398 -72 -120 -120 -250 -94
-250 7 0 53 20 104 45 119 57 317 114 317 91 0 -2 -11 -28 -25 -57 -32 -69
-42 -134 -24 -155 7 -9 58 -48 114 -87 55 -39 132 -95 171 -124 39 -29 77 -53
84 -53 8 0 45 30 82 67 77 77 83 76 104 -14 18 -75 17 -207 -1 -308 -18 -100
-18 -115 -1 -115 15 0 139 123 181 180 148 198 238 491 205 664 l-12 65 116
173 c128 193 263 449 319 606 121 340 151 689 67 780 -24 25 -57 27 -112 7z
m-198 -338 c52 -35 128 -81 168 -102 81 -42 92 -60 31 -52 -78 10 -236 110
-297 188 -37 46 -7 36 98 -34z m-123 -330 c18 -12 42 -40 53 -63 83 -169 -117
-333 -257 -211 -82 72 -83 190 -1 263 53 48 143 53 205 11z m-430 -682 c7 -20
-41 -117 -106 -215 -72 -108 -184 -246 -189 -232 -10 31 145 309 236 420 37
45 49 51 59 27z"/>
<path d="M3613 6015 c-358 -65 -650 -311 -793 -668 -174 -435 -90 -913 219
-1241 31 -32 78 -76 105 -98 l49 -39 32 59 c87 164 223 304 379 391 53 29 96
57 96 61 0 4 -5 21 -11 38 -7 22 -8 46 -1 79 6 26 9 49 7 51 -5 5 -162 -58
-220 -89 -67 -36 -104 -37 -135 -4 -35 37 -25 106 33 228 62 131 125 223 226
329 119 126 232 197 341 216 29 5 48 14 55 27 65 127 153 270 264 429 35 49
65 95 67 101 10 24 -209 107 -345 130 -101 18 -270 18 -368 0z m-317 -585 c9
-22 31 -53 49 -69 l34 -29 -29 -12 c-28 -12 -60 -62 -60 -94 0 -9 -4 -16 -10
-16 -5 0 -10 7 -10 15 0 34 -33 77 -72 95 l-40 18 37 18 c38 18 75 65 75 97 0
28 9 20 26 -23z"/>
<path d="M6705 5680 c-110 -43 -169 -122 -169 -226 1 -114 73 -196 207 -235
217 -63 241 -78 235 -145 -4 -55 -50 -84 -132 -84 -73 0 -128 27 -164 80 -26
39 -24 39 -104 3 -68 -30 -71 -41 -25 -109 85 -128 304 -172 463 -94 72 35
109 77 130 146 26 86 12 154 -44 215 -46 51 -105 81 -227 115 -124 35 -157 60
-153 117 2 34 9 45 37 64 61 41 165 24 212 -35 l20 -26 69 34 c39 19 70 37 70
41 0 4 -15 27 -33 51 -21 28 -53 53 -92 73 -52 26 -72 30 -155 32 -75 2 -105
-1 -145 -17z"/>
<path d="M5730 5259 l0 -421 238 4 c261 5 295 12 365 69 56 46 81 101 82 179
0 54 -5 73 -28 113 -18 30 -41 54 -63 64 -39 19 -42 28 -15 42 30 17 61 91 61
148 0 65 -19 110 -66 156 -62 60 -98 67 -351 67 l-223 0 0 -421z m439 237 c27
-25 28 -85 2 -117 -18 -22 -27 -24 -140 -27 l-121 -4 0 87 0 87 119 -4 c100
-2 122 -6 140 -22z m43 -324 c35 -35 32 -106 -5 -138 -27 -23 -35 -24 -163
-24 l-134 0 0 96 0 96 140 -4 c130 -3 141 -5 162 -26z"/>
<path d="M7530 5667 c0 -7 -32 -99 -71 -203 -127 -341 -229 -617 -229 -621 0
-2 41 -2 92 -1 l91 3 27 80 27 80 168 0 168 0 27 -80 27 -80 96 -3 96 -3 -35
88 c-19 48 -91 238 -161 421 l-128 332 -97 0 c-75 0 -98 -3 -98 -13z m206
-495 c-3 -2 -49 -4 -103 -3 -75 0 -98 3 -97 13 1 11 76 258 91 298 3 8 29 -57
59 -144 29 -88 52 -162 50 -164z"/>
<path d="M4839 4890 l-65 -99 8 -68 c17 -135 -26 -332 -110 -503 -26 -52 -49
-99 -51 -105 -7 -17 82 97 111 141 66 103 126 241 160 373 21 80 38 362 22
360 -5 0 -39 -45 -75 -99z"/>
<path d="M5743 4613 c-10 -4 -13 -86 -13 -364 l0 -359 80 0 80 0 0 130 0 130
49 0 49 0 73 -130 74 -130 88 0 c68 0 86 3 81 13 -4 6 -41 65 -81 129 -75 121
-82 138 -60 138 7 0 29 13 49 30 103 85 106 255 7 349 -58 56 -84 62 -282 66
-100 2 -188 1 -194 -2z m343 -149 c62 -30 68 -112 12 -159 -27 -23 -38 -25
-119 -25 l-89 0 0 100 0 100 81 0 c53 0 92 -5 115 -16z"/>
<path d="M6624 4602 c-94 -33 -176 -110 -216 -202 -29 -65 -35 -181 -13 -255
42 -150 149 -242 307 -266 126 -20 246 25 331 122 64 73 91 156 85 267 -7 147
-68 247 -190 313 -57 30 -72 34 -158 36 -73 3 -107 -1 -146 -15z m233 -145
c123 -64 153 -267 55 -370 -84 -89 -241 -91 -318 -5 -79 86 -83 227 -9 324 59
77 178 100 272 51z"/>
<path d="M7453 4606 c-83 -27 -153 -88 -196 -171 -31 -58 -32 -65 -32 -180 0
-116 1 -123 33 -187 106 -215 415 -259 571 -82 22 26 41 53 41 61 0 12 -98 63
-122 63 -5 0 -21 -14 -36 -31 -33 -40 -78 -59 -141 -59 -87 0 -146 37 -182
115 -24 51 -25 167 -3 221 57 139 240 173 334 61 l26 -29 62 31 c34 17 62 35
62 40 0 20 -87 104 -134 128 -43 22 -67 27 -146 30 -61 2 -110 -2 -137 -11z"/>
<path d="M7977 4613 c-4 -3 -7 -168 -7 -365 l0 -358 79 0 79 0 -1 108 c-1 92
2 112 19 135 10 14 24 26 29 26 6 0 54 -60 108 -134 l99 -135 94 0 c63 0 93 3
89 10 -4 6 -64 90 -134 188 -70 97 -131 183 -135 190 -5 9 33 64 114 163 67
83 124 157 127 164 4 11 -13 14 -84 12 l-88 -2 -72 -90 c-40 -49 -92 -116
-115 -147 -23 -32 -45 -58 -48 -58 -3 0 -3 64 -2 141 3 111 1 143 -10 150 -15
10 -132 12 -141 2z"/>
<path d="M8676 4613 c-3 -4 -6 -168 -6 -365 l0 -358 240 0 240 0 0 70 0 70
-165 0 -165 0 0 80 0 80 140 0 140 0 0 65 0 65 -140 0 -140 0 0 75 0 74 158 3
157 3 0 70 0 70 -226 2 c-125 1 -229 -1 -233 -4z"/>
<path d="M9246 4613 c-3 -4 -6 -37 -6 -75 l0 -69 105 3 105 3 0 -292 0 -293
80 0 80 0 0 290 0 290 104 0 c119 0 119 0 107 95 l-6 50 -281 2 c-155 1 -284
-1 -288 -4z"/>
<path d="M3761 4397 c-15 -44 -8 -60 42 -93 23 -16 62 -43 86 -61 24 -18 56
-33 71 -33 26 0 60 26 60 46 -1 8 -231 174 -243 174 -3 0 -10 -15 -16 -33z"/>
<path d="M3571 4314 c-100 -50 -252 -227 -318 -370 -25 -56 -43 -164 -26 -164
11 0 85 49 131 86 18 15 32 21 32 14 0 -7 -16 -51 -35 -99 -76 -190 -167 -323
-297 -431 -64 -54 -65 -55 -40 -61 55 -13 190 -8 278 10 115 24 217 73 319
155 44 35 82 63 83 61 5 -5 -65 -110 -83 -125 -45 -37 12 -40 84 -4 168 84
301 353 301 609 0 96 -5 115 -30 115 -13 0 -24 -20 -43 -82 -31 -97 -102 -248
-117 -248 -5 0 -10 12 -11 28 -1 15 -4 38 -8 52 -6 22 -12 15 -49 -63 -55
-112 -145 -211 -234 -255 -34 -17 -64 -29 -66 -28 -2 2 20 34 48 71 77 102
217 411 196 432 -5 6 -60 -32 -100 -69 -31 -28 -38 -22 -31 25 17 113 56 208
120 291 29 38 34 50 24 62 -18 22 -70 17 -128 -12z"/>
<path d="M4205 4228 c-42 -34 -54 -39 -86 -35 l-36 5 -6 -127 c-6 -111 -17
-182 -41 -258 -6 -19 -4 -23 12 -23 17 0 193 47 199 54 1 1 -3 18 -9 38 -9 29
-7 50 7 105 19 75 33 283 19 282 -5 0 -31 -18 -59 -41z"/>
<path d="M5887 3676 c-111 -41 -166 -139 -138 -243 23 -83 80 -126 223 -168
104 -30 128 -47 128 -89 0 -86 -140 -111 -217 -38 -17 15 -32 34 -35 42 -4 13
-14 10 -61 -12 -63 -31 -68 -44 -35 -91 54 -76 124 -110 233 -111 93 -1 143
14 191 57 59 51 82 121 65 198 -19 84 -64 119 -221 169 -107 35 -130 51 -130
90 0 49 30 73 96 78 56 4 61 2 101 -32 l42 -36 55 27 c31 15 56 30 56 33 0 22
-68 92 -108 112 -58 28 -186 36 -245 14z"/>
<path d="M8973 3676 c-147 -48 -238 -165 -250 -320 -9 -121 41 -249 123 -311
70 -54 142 -79 229 -79 149 -1 265 66 327 191 31 64 33 74 33 173 0 124 -17
171 -89 248 -67 72 -140 104 -246 108 -55 3 -100 -1 -127 -10z m215 -153 c23
-13 55 -43 70 -65 24 -38 27 -50 27 -134 0 -86 -2 -95 -30 -135 -106 -150
-336 -101 -377 79 -44 198 142 351 310 255z"/>
<path d="M6329 3675 c0 -3 0 -33 -1 -67 l0 -63 106 -3 106 -3 0 -279 0 -280
70 0 70 0 0 280 0 279 108 3 107 3 0 65 0 65 -282 3 c-156 1 -283 0 -284 -3z"/>
<path d="M7000 3437 c0 -287 7 -322 73 -388 63 -62 115 -82 217 -82 72 -1 93
3 136 26 28 14 66 43 84 63 63 72 65 83 65 364 l0 255 -72 3 -73 3 0 -238 c0
-207 -2 -243 -18 -273 -38 -76 -162 -94 -224 -32 -41 40 -47 80 -47 335 l-1
207 -70 0 -70 0 0 -243z"/>
<path d="M7720 3330 l0 -350 143 0 c245 0 359 48 432 181 25 47 30 67 33 149
3 78 0 105 -17 151 -28 74 -77 129 -148 167 -73 39 -153 52 -315 52 l-128 0 0
-350z m372 177 c59 -34 88 -91 88 -170 0 -139 -70 -205 -227 -215 l-83 -5 0
213 0 212 88 -4 c73 -3 96 -9 134 -31z"/>
<path d="M8457 3673 c-4 -3 -7 -161 -7 -350 l0 -343 75 0 75 0 0 350 0 350
-68 0 c-38 0 -72 -3 -75 -7z"/>
</g>
</svg>
